<svg xmlns="http://www.w3.org/2000/svg" width="1280" height="346" viewBox="0 0 1280 346" version="1.1"><path d="M 963 1.127 C 956.675 1.592, 945.200 2.671, 937.500 3.525 C 929.800 4.378, 916.075 6.215, 907 7.606 C 897.925 8.997, 883.750 11.481, 875.500 13.126 C 867.250 14.770, 851.500 18.389, 840.500 21.168 C 829.500 23.947, 812.625 28.612, 803 31.536 C 793.375 34.459, 778.300 39.406, 769.500 42.527 C 760.700 45.649, 744.500 51.819, 733.500 56.238 C 722.500 60.657, 705.175 68.066, 695 72.703 C 684.825 77.339, 666.150 86.434, 653.500 92.914 C 640.850 99.394, 622.400 109.338, 612.500 115.012 C 602.600 120.686, 585.275 131.075, 574 138.099 C 562.725 145.123, 544.950 156.739, 534.500 163.911 C 524.050 171.084, 508.300 181.804, 499.500 187.733 C 490.700 193.663, 477.650 201.512, 470.500 205.176 C 463.350 208.840, 453.380 213.647, 448.344 215.858 C 443.309 218.069, 431.904 222.380, 423 225.439 C 414.096 228.498, 399.541 232.785, 390.656 234.966 C 381.770 237.147, 369.100 239.839, 362.500 240.949 C 355.900 242.058, 345.325 243.621, 339 244.422 C 332.675 245.223, 320.168 246.414, 311.206 247.067 C 300.752 247.829, 282.653 248.064, 260.706 247.722 C 240.905 247.414, 219.762 246.516, 210.500 245.589 C 201.700 244.709, 187.750 243.075, 179.500 241.958 C 171.250 240.842, 156.756 238.606, 147.291 236.990 C 137.827 235.374, 122.527 232.434, 113.291 230.457 C 104.056 228.480, 89.300 225.067, 80.500 222.872 C 71.700 220.678, 57.525 216.915, 49 214.511 C 40.475 212.107, 26.214 207.859, 17.308 205.070 C 8.403 202.282, 0.866 200, 0.558 200 C 0.251 200, -0 232.850, -0 273.001 L -0 346.002 640.250 345.751 L 1280.500 345.500 1280.846 341 C 1281.037 338.525, 1280.869 274.701, 1280.473 199.169 L 1279.754 61.837 1272.127 58.340 C 1267.932 56.416, 1258.650 52.358, 1251.500 49.322 C 1244.350 46.286, 1230.842 40.968, 1221.483 37.505 C 1212.123 34.042, 1196.823 28.931, 1187.483 26.148 C 1178.142 23.365, 1164.200 19.530, 1156.500 17.625 C 1148.800 15.720, 1136.650 13.007, 1129.500 11.595 C 1122.350 10.183, 1110.875 8.142, 1104 7.061 C 1097.125 5.979, 1085.425 4.402, 1078 3.556 C 1070.575 2.710, 1058.200 1.566, 1050.500 1.013 C 1042.800 0.460, 1022.550 0.070, 1005.500 0.145 C 988.450 0.220, 969.325 0.662, 963 1.127 M 0.475 273 C 0.475 313.425, 0.598 329.963, 0.750 309.750 C 0.901 289.538, 0.901 256.463, 0.750 236.250 C 0.598 216.038, 0.475 232.575, 0.475 273" stroke="none" fill="#7c7464" fill-rule="evenodd"/></svg>